<?xml version="1.0" encoding="utf-8"?>
<!-- Generator: Adobe Illustrator 17.0.0, SVG Export Plug-In . SVG Version: 6.00 Build 0)  -->
<!DOCTYPE svg PUBLIC "-//W3C//DTD SVG 1.1//EN" "http://www.w3.org/Graphics/SVG/1.1/DTD/svg11.dtd">
<svg version="1.1" xmlns="http://www.w3.org/2000/svg" xmlns:xlink="http://www.w3.org/1999/xlink" x="0px" y="0px"
	 width="1517.569px" height="648.711px" viewBox="0 0 1517.569 648.711" style="enable-background:new 0 0 1517.569 648.711;"
	 xml:space="preserve">
<style type="text/css">
	.st0{fill:#FFFFFF;}
</style>
<g id="Layer_4">
</g>
<g id="Layer_2">
	<path class="st0" d="M178.397,97.667l-56.978-71.779c0,0-26.939-43.498-31.439,19.499l-5.869,92.28
		C112.131,117.194,144.251,103.564,178.397,97.667z"/>
	<path class="st0" d="M10.194,387.577l15.996-14.419c-3.098-9.251-5.302-19.048-6.477-29.248l-18.962-2.709
		C2.224,357.153,5.424,372.684,10.194,387.577z"/>
	<path class="st0" d="M0,312.259l19.71-2.816c1.174-10.203,3.377-19.997,6.477-29.248L7.555,263.4
		C3.255,279.058,0.667,295.415,0,312.259z"/>
	<path class="st0" d="M121.419,399.404c33.268,0,60.24-32.56,60.24-72.728c0-40.167-26.972-72.728-60.24-72.728
		c-33.275,0-60.242,32.56-60.242,72.728C61.176,366.844,88.146,399.404,121.419,399.404z"/>
	<path class="st0" d="M121.419,417.156c41.32,0,74.941-40.59,74.941-90.476s-33.621-90.476-74.941-90.476
		c-41.325,0-74.944,40.59-74.944,90.476S80.094,417.156,121.419,417.156z M121.419,242.173c38.595,0,69.994,37.911,69.994,84.504
		s-31.401,84.504-69.994,84.504s-69.997-37.911-69.997-84.504S82.823,242.173,121.419,242.173z"/>
</g>
<g id="Layer_1">
	<path class="st0" d="M380.575,567.742c17.092-9.109,32.572-19.454,47.411-31.672c5.2-4.157,9.247-7.678,12.08-10.507l0.134-0.128
		c9.237-8.492,18.267-17.867,26.837-27.866c34.631-40.402,47.697-75.688,38.836-104.877c-10.156-33.455-46.86-50.166-61.509-55.618
		c0.923,34.397-15.268,64.965-48.203,90.943c-20.266,16.235-62.929,28.2-90.216,34.57c2.495,0.187,4.948,0.308,7.354,0.364
		l22.848,0.538l-21.346,8.164c-16.072,6.147-33.944,12.021-53.119,17.458C184.239,511.074,105.43,614.057,80.696,648.711
		c43.365-14.82,85.628-23.376,128.609-31.469l13.611-2.563l-10.193,10.803C241.485,620.519,313.901,605.158,380.575,567.742z"/>
</g>
<g id="Layer_3">
	<path class="st0" d="M435.096,320.977c0-41.129-11.471-79.628-31.376-112.471l25.597-179.154
		c-2.675-51.236-41.74-19.82-41.74-19.82L271.342,110.091c-17.24-4.408-35.295-6.756-53.888-6.756
		c-92.785,0-172.181,58.37-203.434,140.312c0.979-1.841,1.986-3.658,3.026-5.444l23.437,12.163
		c5.165-7.977,11.116-15.159,17.721-21.397l-10.07-28.299c6.134-5.208,12.658-9.786,19.52-13.641l15.262,24.678
		c7.66-3.743,15.775-6.403,24.226-7.82l2.994-30.572c3.722-0.392,7.472-0.633,11.28-0.633c3.801,0,7.558,0.241,11.276,0.633
		l2.999,30.572c8.446,1.417,16.563,4.077,24.224,7.82l15.265-24.678c6.862,3.855,13.386,8.436,19.518,13.641l-10.07,28.299
		c6.605,6.233,12.556,13.42,17.723,21.397l23.437-12.163c4.316,7.403,8.108,15.282,11.301,23.567l-20.443,18.426
		c3.101,9.251,5.304,19.045,6.48,29.248l25.32,3.62c0.327,4.488,0.526,9.024,0.526,13.613s-0.199,9.125-0.526,13.613l-25.32,3.62
		c-1.176,10.2-3.379,19.997-6.48,29.248l20.448,18.426c-3.193,8.285-6.988,16.161-11.301,23.567l-23.437-12.16
		c-5.167,7.974-11.118,15.156-17.723,21.394l10.07,28.302c-6.132,5.205-12.658,9.783-19.518,13.638l-15.265-24.678
		c-7.66,3.741-15.777,6.401-24.224,7.82l-2.999,30.572c-3.718,0.392-7.475,0.633-11.276,0.633c-3.806,0-7.558-0.241-11.28-0.633
		l-2.994-30.572c-8.449-1.42-16.566-4.079-24.226-7.82l-15.262,24.678c-6.862-3.855-13.386-8.436-19.52-13.644l10.07-28.296
		c-6.605-6.238-12.556-13.42-17.721-21.394L20.345,413.44c24.748,52.842,70.332,94.783,128.315,114.086
		c7.328,2.439,14.712,4.45,21.951,5.98c31.347-27.439,61.018-45.226,88.616-53.052c11.621-3.296,22.75-6.75,33.274-10.328
		c-4.254-0.632-8.591-1.424-12.994-2.372l-22.285-4.801l22.438-4.028c0.818-0.146,82.204-14.962,110.901-37.952
		c18.25-14.395,30.962-30.215,38.075-47.316c3.514-14.081,5.649-28.7,6.261-43.706l-0.487-5.365l0.638,0.179
		C435.069,323.503,435.096,322.243,435.096,320.977z M314.89,126.404l82.574-81.018L381.147,177.71
		C362.663,156.617,340.179,139.119,314.89,126.404z"/>
	<g>
		<path class="st0" d="M648.875,205.888v2.988c0,1.494-0.498,1.992-2.158,1.992h-62.25v49.136h54.116
			c1.66,0,2.158,0.498,2.158,2.158v2.988c0,1.494-0.498,1.992-2.158,1.992h-54.116v52.29c0,1.66-0.498,2.158-1.992,2.158h-3.485
			c-1.66,0-2.158-0.498-2.158-2.158V205.888c0-1.66,0.498-2.158,2.158-2.158h67.728C648.377,203.73,648.875,204.228,648.875,205.888
			z"/>
		<path class="st0" d="M708.139,201.406c28.884,0,44.488,15.604,44.488,41.002v40.504c0,25.398-15.604,41.002-44.488,41.002
			c-29.216,0-44.82-15.604-44.82-41.002v-40.504C663.319,217.01,678.923,201.406,708.139,201.406z M708.139,208.544
			c-24.236,0-37.185,12.616-37.185,33.864v40.504c0,21.248,12.948,33.864,37.185,33.864c23.904,0,36.852-12.616,36.852-33.864
			v-40.504C744.99,221.16,732.043,208.544,708.139,208.544z"/>
		<path class="st0" d="M856.376,321.59h-4.316c-2.489,0-2.987-0.166-3.983-1.826l-38.513-52.124l-38.18,52.124
			c-1.162,1.66-1.66,1.826-3.984,1.826h-4.149c-1.826,0-1.826-1.162-0.996-2.49l42.662-57.27l-41.5-56.108
			c-0.664-0.996-0.332-1.992,1.162-1.992h4.315c2.324,0,2.822,0.332,3.818,1.826l37.184,50.132l37.019-50.132
			c0.996-1.494,1.494-1.826,3.817-1.826h4.316c1.328,0,1.826,0.996,0.996,1.992l-41.334,55.942l42.496,57.436
			C858.202,320.428,858.036,321.59,856.376,321.59z"/>
	</g>
	<g>
		<path class="st0" d="M697.871,342.165v104.248c0,5.146-1.826,6.806-7.138,6.806h-18.095c-5.312,0-6.972-1.66-6.972-6.806v-23.738
			c0-10.956,0.996-21.414,7.304-43.492h-1.826c-1.659,5.479-7.636,20.584-11.122,27.39l-9.296,18.759
			c-1.825,3.319-3.485,4.813-7.968,4.813h-11.122c-4.481,0-6.142-1.162-7.968-4.813l-9.794-18.759
			c-3.486-6.308-8.632-21.579-10.292-27.39h-1.66c5.976,23.904,6.806,32.204,6.806,43.658v23.572c0,5.146-1.826,6.806-7.138,6.806
			h-16.932c-5.313,0-7.139-1.66-7.139-6.806V342.165c0-5.313,1.826-6.973,7.139-6.973h15.604c5.811,0,7.47,0.996,9.794,5.146
			l27.391,53.784l27.39-53.618c2.324-4.482,3.818-5.313,9.296-5.313h16.601C696.045,335.192,697.871,336.852,697.871,342.165z"/>
		<path class="st0" d="M798.3,342.331v14.939c0,5.313-1.826,7.139-7.138,7.139h-43.824v14.773h35.026
			c5.312,0,7.138,1.826,7.138,6.973v14.939c0,5.312-1.826,7.138-7.138,7.138h-35.026v15.937h45.318c5.146,0,6.972,1.66,6.972,6.972
			v15.106c0,5.146-1.826,6.972-6.972,6.972h-71.048c-5.313,0-7.139-1.826-7.139-6.972V342.331c0-5.146,1.826-6.973,7.139-6.973
			h69.554C796.474,335.358,798.3,337.184,798.3,342.331z"/>
		<path class="st0" d="M859.389,332.869c25.563,0,41.5,10.458,48.472,29.05c1.66,4.813,0.498,7.304-4.481,8.964l-17.763,6.308
			c-5.146,1.494-7.138,0.664-8.964-4.481c-2.988-7.47-7.968-10.79-17.264-10.79c-13.114,0-18.261,5.644-18.261,17.264v30.212
			c0,11.62,5.146,17.264,18.261,17.264c9.296,0,14.607-3.651,17.264-10.789c1.992-5.146,3.984-6.309,8.964-4.482l17.763,6.308
			c4.979,1.66,6.142,4.15,4.481,8.964c-6.972,18.593-22.908,29.051-48.472,29.051c-32.702,0-51.129-17.763-51.129-46.48v-29.88
			C808.26,350.63,826.687,332.869,859.389,332.869z"/>
		<path class="st0" d="M1017.086,342.331v103.916c0,5.146-1.826,6.972-6.972,6.972H991.19c-5.146,0-6.972-1.826-6.972-6.972v-38.181
			h-32.204v38.181c0,5.146-1.66,6.972-6.972,6.972h-18.758c-5.313,0-7.139-1.826-7.139-6.972V342.331
			c0-5.313,1.826-7.139,7.139-7.139h18.758c5.312,0,6.972,1.826,6.972,7.139v36.686h32.204v-36.686c0-5.313,1.826-7.139,6.972-7.139
			h18.925C1015.26,335.192,1017.086,337.018,1017.086,342.331z"/>
		<path class="st0" d="M1134.115,453.218h-17.929c-8.632,0-11.122-1.826-12.449-6.972l-3.818-11.952h-35.856l-3.817,11.952
			c-1.66,5.146-3.818,6.972-12.118,6.972h-17.43c-5.146,0-6.143-2.324-4.482-6.806l38.18-105.244
			c1.66-4.814,3.818-5.811,8.633-5.811h18.924c4.813,0,6.972,1.162,8.632,5.479l38.346,105.576
			C1140.588,450.894,1139.094,453.218,1134.115,453.218z M1082.655,365.57h-1.66c0,0,0.166,11.952-3.154,23.074l-6.142,19.588h20.75
			l-6.143-19.422C1082.987,377.522,1082.655,365.57,1082.655,365.57z"/>
		<path class="st0" d="M1247.49,342.331v103.916c0,5.146-1.826,6.972-6.972,6.972h-18.759c-3.485,0-5.312-0.996-6.806-3.32
			l-25.564-39.342c-7.304-11.454-10.126-19.256-14.607-34.196h-1.328c3.485,15.937,5.478,24.402,5.478,42.828v27.059
			c0,5.146-1.826,6.972-7.138,6.972h-16.766c-5.313,0-7.139-1.826-7.139-6.972V342.331c0-5.146,1.826-6.973,7.139-6.973h19.588
			c3.817,0,5.478,0.996,6.972,3.32l27.224,42.496c7.305,11.454,8.633,17.762,13.944,30.378h1.328
			c-5.312-17.098-7.47-25.065-7.47-41.998v-27.224c0-5.146,1.66-6.973,6.972-6.973h16.933
			C1245.664,335.358,1247.49,337.184,1247.49,342.331z"/>
		<path class="st0" d="M1270.73,335.358h19.588c4.979,0,6.64,1.66,6.64,6.641v104.58c0,4.979-1.66,6.64-6.64,6.64h-19.588
			c-4.98,0-6.641-1.66-6.641-6.64v-104.58C1264.089,337.018,1265.749,335.358,1270.73,335.358z"/>
		<path class="st0" d="M1362.03,332.869c25.563,0,41.5,10.458,48.472,29.05c1.66,4.813,0.498,7.304-4.481,8.964l-17.763,6.308
			c-5.146,1.494-7.138,0.664-8.964-4.481c-2.988-7.47-7.968-10.79-17.264-10.79c-13.114,0-18.261,5.644-18.261,17.264v30.212
			c0,11.62,5.146,17.264,18.261,17.264c9.296,0,14.607-3.651,17.264-10.789c1.992-5.146,3.984-6.309,8.964-4.482l17.763,6.308
			c4.979,1.66,6.142,4.15,4.481,8.964c-6.972,18.593-22.908,29.051-48.472,29.051c-32.702,0-51.129-17.763-51.129-46.48v-29.88
			C1310.901,350.63,1329.327,332.869,1362.03,332.869z"/>
		<path class="st0" d="M1467.437,332.869c24.568,0,38.512,7.304,46.314,23.239c2.323,4.814,0.995,7.305-3.984,9.297l-16.6,7.138
			c-4.482,1.992-6.309,1.328-8.965-3.486c-3.153-6.308-9.13-8.632-16.766-8.632c-11.288,0-15.771,2.822-15.771,8.632
			c0,7.138,9.794,8.632,21.746,10.126c19.257,2.656,44.156,7.305,44.156,38.678c0,24.402-22.078,37.849-51.46,37.849
			c-24.734,0-41.998-8.466-48.306-25.73c-1.826-4.979-0.332-7.304,4.481-9.13l15.604-5.644c4.979-1.66,7.304-1.162,9.794,3.651
			c2.988,5.811,9.462,8.798,18.758,8.798c11.122,0,17.762-2.323,17.762-9.462c0-6.474-8.466-8.3-19.422-9.794
			c-19.422-2.655-46.646-6.142-46.646-38.346C1418.135,348.14,1435.731,332.869,1467.437,332.869z"/>
	</g>
	<g>
	</g>
	<g>
	</g>
	<g>
	</g>
	<g>
	</g>
	<g>
	</g>
	<g>
	</g>
</g>
</svg>
