<?xml version="1.0" encoding="utf-8"?>
<!-- Generator: Adobe Illustrator 17.0.0, SVG Export Plug-In . SVG Version: 6.00 Build 0)  -->
<!DOCTYPE svg PUBLIC "-//W3C//DTD SVG 1.1//EN" "http://www.w3.org/Graphics/SVG/1.1/DTD/svg11.dtd">
<svg version="1.1" id="Layer_1" xmlns="http://www.w3.org/2000/svg" xmlns:xlink="http://www.w3.org/1999/xlink" x="0px" y="0px"
	 width="417.326px" height="623.859px" viewBox="0 0 417.326 623.859" style="enable-background:new 0 0 417.326 623.859;"
	 xml:space="preserve">
<style type="text/css">
	.st0{fill:#FFFFFF;}
	.st1{fill:#115472;}
</style>
<g>
	<g>
		<path class="st0" d="M293.788,103.751c3.922,1.747,5.883,4.798,5.883,9.153V296.62c0,3.051-1.309,5.769-3.922,8.172
			c-2.618,2.394-5.669,3.598-9.153,3.598c-10.028,0-15.036-3.927-15.036-11.771V125.981c0-2.615-1.309-4.576-3.927-5.885
			L135.57,49.486c-6.978-2.175-14.384-1.088-22.228,3.27c-9.593,4.362-15.69,9.153-18.306,14.384l133.373,74.532
			c3.922,1.747,5.883,4.795,5.883,9.153v179.794c0,4.788-1.961,7.844-5.883,9.148c-1.309,0.871-3.056,1.313-5.231,1.313
			c-3.056,0-5.231-0.442-6.537-1.313c-1.749-1.304-23.758-15.15-66.033-41.514c-42.282-26.364-65.379-40.638-69.301-42.823
			c-5.671-3.922-8.501-7.625-8.501-11.114L70.845,73.023c0-6.097,1.523-11.768,4.576-16.997c6.1-10.022,17.213-18.415,33.344-25.171
			c16.124-6.752,28.765-7.732,37.92-2.941L293.788,103.751z"/>
	</g>
	<path class="st0" d="M339.686,78.821L192.584,2.983c-9.155-4.791-21.797-3.81-37.92,2.941
		c-13.153,5.509-22.911,12.125-29.395,19.807c8.516-1.553,15.659-0.831,21.417,2.182l6.169,3.18
		c1.923-1.115,4.047-2.204,6.385-3.268c7.844-4.358,15.25-5.445,22.228-3.27l132.064,70.61c2.618,1.309,3.927,3.27,3.927,5.885
		V271.69c0,7.844,5.007,11.771,15.036,11.771c3.484,0,6.535-1.204,9.153-3.598c2.613-2.403,3.922-5.121,3.922-8.173V87.974
		C345.569,83.618,343.608,80.568,339.686,78.821z"/>
</g>
<g>
	<path class="st0" d="M18.813,461.485h25.824v17.103H18.813v35.059h32.494v17.103H0V411.034h51.306v17.102H18.813V461.485z"/>
	<path class="st0" d="M79.693,444.041v86.707H62.763V411.034h23.601l19.325,71.657v-71.657h16.76v119.714h-19.325L79.693,444.041z"
		/>
	<path class="st0" d="M164.173,464.05h26.337v37.967c0,19.154-9.577,30.1-28.047,30.1s-28.047-10.945-28.047-30.1v-62.252
		c0-19.154,9.577-30.1,28.047-30.1s28.047,10.945,28.047,30.1v11.63h-17.786v-12.826c0-8.552-3.763-11.801-9.748-11.801
		c-5.986,0-9.749,3.249-9.749,11.801v64.646c0,8.551,3.763,11.629,9.749,11.629c5.985,0,9.748-3.078,9.748-11.629v-22.062h-8.551
		V464.05z"/>
	<path class="st0" d="M202.651,411.034h18.813v102.611h30.954v17.103h-49.767V411.034z"/>
	<path class="st0" d="M260.625,411.034h18.813v119.714h-18.813V411.034z"/>
	<path class="st0" d="M318.426,409.665c18.3,0,27.706,10.945,27.706,30.1v3.763h-17.786v-4.959c0-8.552-3.421-11.801-9.406-11.801
		c-5.986,0-9.406,3.249-9.406,11.801c0,24.627,36.77,29.244,36.77,63.448c0,19.154-9.577,30.1-28.048,30.1
		c-18.47,0-28.047-10.945-28.047-30.1v-7.354h17.786v8.551c0,8.551,3.763,11.629,9.748,11.629s9.748-3.078,9.748-11.629
		c0-24.627-36.77-29.244-36.77-63.449C290.721,420.611,300.127,409.665,318.426,409.665z"/>
	<path class="st0" d="M375.887,530.748h-18.813V411.034h18.813v51.306h21.377v-51.306h19.154v119.714h-19.154v-51.306h-21.377
		V530.748z"/>
</g>
<g>
	<path class="st1" d="M1.089,539.757h20.669c13.066,0,19.481,7.247,19.481,20.55v42.051c0,13.305-6.415,20.55-19.481,20.55H1.089
		V539.757z M14.156,551.636v59.393h7.365c4.158,0,6.652-2.138,6.652-8.078v-43.238c0-5.94-2.494-8.078-6.652-8.078H14.156z"/>
	<path class="st1" d="M49.555,539.757h13.067v83.152H49.555V539.757z"/>
	<path class="st1" d="M110.018,591.905v11.047c0,13.305-6.652,20.907-19.481,20.907s-19.481-7.602-19.481-20.907v-43.238
		c0-13.304,6.652-20.907,19.481-20.907s19.481,7.602,19.481,20.907v8.078H97.664v-8.909c0-5.94-2.613-8.196-6.771-8.196
		c-4.158,0-6.771,2.256-6.771,8.196v44.902c0,5.94,2.613,8.078,6.771,8.078c4.158,0,6.771-2.138,6.771-8.078v-11.879H110.018z"/>
	<path class="st1" d="M114.175,539.757h40.388v11.879h-13.661v71.272h-13.066v-71.272h-13.661V539.757z"/>
	<path class="st1" d="M160.265,539.757h13.067v83.152h-13.067V539.757z"/>
	<path class="st1" d="M181.765,559.714c0-13.304,7.009-20.907,19.837-20.907c12.829,0,19.837,7.602,19.837,20.907v43.238
		c0,13.305-7.009,20.907-19.837,20.907c-12.829,0-19.837-7.602-19.837-20.907V559.714z M194.832,603.784
		c0,5.94,2.613,8.197,6.771,8.197s6.771-2.257,6.771-8.197v-44.902c0-5.94-2.613-8.196-6.771-8.196s-6.771,2.256-6.771,8.196
		V603.784z"/>
	<path class="st1" d="M241.516,562.684v60.225h-11.76v-83.152h16.393l13.424,49.772v-49.772h11.641v83.152H257.79L241.516,562.684z"
		/>
	<path class="st1" d="M322.886,622.909H309.7l-2.257-15.086h-16.036l-2.257,15.086h-11.997l13.304-83.152h19.125L322.886,622.909z
		 M293.07,596.538h12.591l-6.295-42.051L293.07,596.538z"/>
	<path class="st1" d="M356.267,622.909c-0.713-2.138-1.188-3.445-1.188-10.215v-13.067c0-7.722-2.613-10.572-8.553-10.572h-4.514
		v33.855h-13.066v-83.152h19.718c13.542,0,19.362,6.295,19.362,19.125v6.533c0,8.554-2.732,14.136-8.553,16.869
		c6.534,2.732,8.672,9.028,8.672,17.699v12.829c0,4.039,0.118,7.009,1.425,10.097H356.267z M342.012,551.636v25.539h5.109
		c4.87,0,7.84-2.138,7.84-8.79v-8.196c0-5.94-2.02-8.553-6.652-8.553H342.012z"/>
	<path class="st1" d="M387.748,595.35l-16.512-55.592h13.66l9.979,37.894l9.978-37.894h12.473l-16.512,55.592v27.559h-13.066V595.35
		z"/>
</g>
<g>
</g>
<g>
</g>
<g>
</g>
<g>
</g>
<g>
</g>
<g>
</g>
</svg>
